<?xml version="1.0" standalone="no"?>
<!DOCTYPE svg PUBLIC "-//W3C//DTD SVG 20010904//EN"
 "http://www.w3.org/TR/2001/REC-SVG-20010904/DTD/svg10.dtd">
<svg version="1.0" xmlns="http://www.w3.org/2000/svg"
 width="723.000000pt" height="305.000000pt" viewBox="0 0 723.000000 305.000000"
 preserveAspectRatio="xMidYMid meet">

<g transform="translate(0.000000,305.000000) scale(0.100000,-0.100000)"
fill="#000000" stroke="none">
<path d="M4060 2520 c-25 -5 -87 -30 -138 -55 -76 -38 -111 -64 -193 -142
-144 -139 -239 -294 -317 -522 -34 -100 -36 -113 -37 -233 0 -119 2 -129 22
-150 19 -18 27 -20 50 -12 39 13 42 42 6 46 l-28 3 1 115 c0 105 4 124 37 222
43 128 81 206 153 315 53 79 159 201 168 192 2 -2 0 -27 -5 -54 -24 -124 -41
-341 -46 -593 l-6 -273 -96 -70 c-53 -39 -112 -79 -131 -89 -63 -32 -611 -207
-795 -253 -333 -85 -545 -113 -799 -104 -242 8 -358 47 -470 160 -54 53 -74
85 -134 207 -80 164 -125 218 -212 259 -49 23 -67 26 -165 25 -98 0 -118 -4
-185 -30 -171 -69 -280 -175 -321 -312 -9 -30 -9 -46 -2 -53 8 -8 13 2 18 33
24 148 202 295 406 336 69 13 93 14 152 3 127 -21 187 -73 253 -217 98 -214
106 -228 173 -294 143 -140 332 -190 646 -170 365 22 624 82 1225 285 216 73
306 88 398 65 29 -6 52 -16 52 -20 0 -58 25 -350 41 -468 20 -159 41 -224 73
-230 34 -7 39 12 23 85 -25 111 -67 583 -52 583 18 0 129 -69 386 -240 322
-214 396 -257 412 -241 19 19 0 36 -115 109 -59 37 -212 137 -340 223 -128 86
-261 171 -295 188 l-63 31 0 86 0 86 132 137 c209 216 331 394 404 591 23 63
28 91 28 175 1 110 -14 153 -71 207 -55 52 -154 76 -243 58z m146 -69 c130
-59 136 -227 15 -463 -82 -163 -206 -330 -340 -463 l-71 -69 0 129 c0 160 15
415 35 595 23 210 17 193 85 229 57 31 156 59 210 60 14 0 43 -8 66 -18z
m-469 -1201 c2 -38 1 -40 -25 -39 -15 1 -38 4 -52 8 -25 7 -24 8 19 39 24 18
47 32 50 32 3 0 7 -18 8 -40z"/>
<path d="M6401 2216 c-25 -30 -61 -284 -61 -428 0 -68 -20 -96 -112 -157 -75
-51 -125 -55 -157 -15 -30 39 -26 60 17 88 112 70 148 186 58 186 -62 0 -146
-101 -146 -177 0 -40 -62 -163 -105 -209 -71 -75 -96 -30 -105 193 -7 167 -14
193 -50 193 -10 0 -44 -29 -75 -65 -32 -36 -61 -65 -64 -65 -4 0 -11 19 -17
41 -5 24 -18 48 -30 56 -33 21 -67 -14 -130 -136 l-54 -106 2 110 c3 96 1 110
-14 113 -25 5 -48 -38 -59 -115 -12 -77 -17 -89 -76 -193 -48 -86 -83 -123
-110 -118 -35 6 -46 56 -53 226 -9 221 -28 239 -129 122 -56 -64 -71 -72 -71
-40 0 38 -29 80 -55 80 -31 0 -61 -40 -119 -160 l-46 -95 5 113 5 113 -28 -3
c-22 -2 -30 -11 -40 -43 -34 -102 -23 -243 20 -266 36 -19 67 16 120 136 26
60 56 118 67 128 18 18 18 18 25 -14 8 -44 23 -59 57 -59 21 0 39 13 76 56
l48 55 6 -153 c4 -132 8 -159 27 -195 12 -23 31 -47 43 -53 51 -28 137 34 193
140 37 70 34 68 52 41 11 -15 24 -21 42 -19 24 3 35 19 93 137 63 129 89 165
89 123 0 -28 38 -72 63 -72 13 0 41 22 73 56 l52 57 4 -149 c3 -125 7 -156 24
-195 49 -106 144 -75 235 78 24 40 27 42 40 27 54 -65 163 -46 263 47 l43 39
12 -109 c14 -129 32 -195 62 -227 55 -58 99 -6 172 201 20 55 47 130 61 167
24 62 22 95 -3 65 -10 -12 -53 -119 -115 -282 -29 -79 -61 -135 -76 -135 -5 0
-17 26 -27 58 -25 79 -24 453 1 622 32 210 31 200 9 200 -12 0 -26 -6 -32 -14z
m-256 -404 c-18 -29 -76 -84 -83 -78 -13 14 74 120 90 110 5 -3 2 -18 -7 -32z"/>
<path d="M4382 1713 c-21 -8 -70 -119 -88 -201 -22 -98 -16 -183 16 -217 33
-35 66 -32 104 9 38 40 56 94 57 174 1 72 -6 97 -38 140 -22 29 -24 37 -13 57
19 35 0 54 -38 38z m28 -159 c21 -62 -4 -187 -41 -210 -15 -9 -29 14 -29 50 0
43 41 207 50 201 5 -3 14 -22 20 -41z"/>
<path d="M3197 1364 c-3 -3 1 -21 9 -39 19 -47 18 -50 -18 -67 -32 -14 -31
-14 18 -2 15 4 25 1 29 -7 20 -58 26 -70 34 -65 5 3 -4 38 -20 77 -16 39 -29
77 -29 84 0 16 -14 27 -23 19z"/>
<path d="M1452 1250 l-72 -76 22 -21 c38 -34 66 -45 87 -34 23 13 31 33 24 60
-4 17 -1 21 20 21 15 0 32 9 41 21 13 19 13 26 2 48 -8 14 -22 33 -32 41 -18
15 -24 10 -92 -60z m110 -15 c-13 -29 -52 -34 -72 -10 -11 13 -8 21 16 46 28
29 28 29 48 10 17 -17 18 -24 8 -46z m-62 -60 c0 -43 -38 -57 -79 -29 l-23 16
33 34 c31 32 34 33 51 17 10 -9 18 -26 18 -38z"/>
<path d="M3070 1318 c0 -1 14 -36 30 -77 17 -40 30 -79 30 -87 0 -8 7 -14 14
-14 13 0 13 5 0 36 -8 20 -13 42 -10 50 3 7 0 14 -6 16 -7 3 -17 19 -23 38 -6
19 -17 36 -23 38 -7 2 -12 2 -12 0z"/>
<path d="M2930 1275 c-25 -7 -40 -13 -34 -14 7 -1 22 -41 34 -91 12 -49 26
-90 31 -90 11 0 12 -9 -11 80 -26 100 -26 110 5 110 14 0 25 5 25 10 0 6 -1
10 -2 9 -2 -1 -23 -7 -48 -14z"/>
<path d="M2850 1250 c0 -5 7 -7 15 -4 8 4 15 8 15 10 0 2 -7 4 -15 4 -8 0 -15
-4 -15 -10z"/>
<path d="M2767 1223 c-4 -6 6 -48 21 -94 16 -45 31 -79 34 -73 7 13 -48 179
-55 167z"/>
<path d="M2690 1136 l-5 -68 -34 48 c-19 26 -36 43 -38 37 -2 -6 15 -37 39
-67 l43 -56 3 40 c2 22 2 61 0 87 -4 44 -4 42 -8 -21z"/>
<path d="M1650 1104 l-34 -84 20 -27 c23 -31 60 -44 92 -32 24 9 107 169 87
169 -6 0 -19 -21 -28 -48 -30 -82 -53 -112 -86 -112 -34 0 -61 23 -61 50 0 11
15 51 33 89 22 46 30 72 22 75 -6 2 -25 -31 -45 -80z"/>
<path d="M2546 1088 c63 -89 64 -89 62 -33 -1 39 -2 42 -5 16 l-4 -34 -35 52
c-19 28 -39 51 -45 51 -6 0 6 -24 27 -52z"/>
<path d="M1916 1036 c-4 -40 -11 -87 -16 -105 -6 -23 -5 -31 4 -31 9 0 17 30
26 92 7 51 15 98 17 105 3 7 -1 13 -10 13 -11 0 -16 -19 -21 -74z"/>
<path d="M2248 1085 c-3 -3 1 -31 8 -63 8 -31 14 -69 14 -83 0 -23 3 -25 33
-20 25 4 27 6 10 9 -18 3 -24 15 -38 74 -13 58 -14 73 -3 79 10 7 9 9 -3 9 -9
0 -18 -2 -21 -5z"/>
<path d="M2355 1065 c27 -26 33 -70 14 -108 -10 -21 -9 -21 10 2 12 13 21 36
21 51 0 31 -34 80 -55 80 -9 0 -5 -9 10 -25z"/>
<path d="M2061 1073 c0 -5 8 -46 17 -93 l17 -85 30 6 c22 5 24 7 8 8 -24 1
-27 9 -44 104 -6 37 -15 67 -20 67 -5 0 -9 -3 -8 -7z"/>
<path d="M2170 920 c-13 -8 -12 -10 3 -10 9 0 17 5 17 10 0 12 -1 12 -20 0z"/>
</g>
</svg>
